<?xml version="1.0" encoding="UTF-8" standalone="no"?>
<svg width="20px" height="80px" viewBox="0 0 20 80" version="1.1" xmlns="http://www.w3.org/2000/svg" xmlns:xlink="http://www.w3.org/1999/xlink" xmlns:sketch="http://www.bohemiancoding.com/sketch/ns">
    <!-- Generator: Sketch 3.2.2 (9983) - http://www.bohemiancoding.com/sketch -->
    <title>Search Icons</title>
    <desc>Created with Sketch.</desc>
    <defs></defs>
    <g id="Page-1" stroke="none" stroke-width="1" fill="none" fill-rule="evenodd" sketch:type="MSPage">
        <g id="Search-Icons" sketch:type="MSArtboardGroup">
            <path d="M8.0950833,13.5032823 C5.24633514,13.5032823 2.93770512,11.3501094 2.93770512,8.6892779 C2.93770512,6.02844639 5.24633514,3.87527352 8.0950833,3.87527352 C10.9438315,3.87527352 13.2524615,6.02844639 13.2524615,8.6892779 C13.2524615,11.3501094 10.9438315,13.5032823 8.0950833,13.5032823 L8.0950833,13.5032823 Z M16.8691901,16.2866521 L12.7057794,12.4004376 C13.6284812,11.4026258 14.1901666,10.107221 14.1901666,8.6892779 C14.1901666,5.54704595 11.4614447,3 8.0950833,3 C4.72872191,3 2,5.54704595 2,8.6892779 C2,11.8315098 4.72872191,14.3785558 8.0950833,14.3785558 C9.61791642,14.3785558 11.00572,13.8533917 12.0737661,12.9956236 L16.2381146,16.8818381 C16.4125277,17.0393873 16.694777,17.0393873 16.8691901,16.8818381 C17.0436033,16.7155361 17.0436033,16.452954 16.8691901,16.2866521 L16.8691901,16.2866521 Z" id="search-icon" fill="#3CC66A" sketch:type="MSShapeGroup"></path>
            <path d="M8.0950833,33.5032823 C5.24633514,33.5032823 2.93770512,31.3501094 2.93770512,28.6892779 C2.93770512,26.0284464 5.24633514,23.8752735 8.0950833,23.8752735 C10.9438315,23.8752735 13.2524615,26.0284464 13.2524615,28.6892779 C13.2524615,31.3501094 10.9438315,33.5032823 8.0950833,33.5032823 L8.0950833,33.5032823 Z M16.8691901,36.2866521 L12.7057794,32.4004376 C13.6284812,31.4026258 14.1901666,30.107221 14.1901666,28.6892779 C14.1901666,25.547046 11.4614447,23 8.0950833,23 C4.72872191,23 2,25.547046 2,28.6892779 C2,31.8315098 4.72872191,34.3785558 8.0950833,34.3785558 C9.61791642,34.3785558 11.00572,33.8533917 12.0737661,32.9956236 L16.2381146,36.8818381 C16.4125277,37.0393873 16.694777,37.0393873 16.8691901,36.8818381 C17.0436033,36.7155361 17.0436033,36.452954 16.8691901,36.2866521 L16.8691901,36.2866521 Z" id="search-icon" fill="#B7BDC4" sketch:type="MSShapeGroup"></path>
            <rect id="Rectangle-67" fill="#B7BDC4" sketch:type="MSShapeGroup" x="3" y="49" width="13" height="1"></rect>
            <rect id="Rectangle-66" fill="#B7BDC4" sketch:type="MSShapeGroup" x="9" y="43" width="1" height="13"></rect>
            <rect id="Rectangle-67" fill="#3CC66A" sketch:type="MSShapeGroup" x="3" y="69" width="13" height="1"></rect>
            <rect id="Rectangle-66" fill="#3CC66A" sketch:type="MSShapeGroup" x="9" y="63" width="1" height="13"></rect>
        </g>
    </g>
</svg>
